HIERARCHY
ROOT root
{
	OFFSET	0	13.1	24.9
	CHANNELS 6  Xposition Yposition Zposition Xrotation Yrotation Zrotation
	JOINT spine_1
	{
		OFFSET	0	9.99999	0
		CHANNELS 3  Xrotation Yrotation Zrotation
		JOINT spine_2
		{
			OFFSET	0	112	-10
			CHANNELS 3  Xrotation Yrotation Zrotation
			JOINT spine_3
			{
				OFFSET	0	206.5	19.3
				CHANNELS 3  Xrotation Yrotation Zrotation
				JOINT spine_4
				{
					OFFSET	0	110.4	14.6
					CHANNELS 3  Xrotation Yrotation Zrotation
					JOINT neck_1
					{
						OFFSET	0	71.8	-50.3
						CHANNELS 3  Xrotation Yrotation Zrotation
						JOINT neck_2
						{
							OFFSET	0	86.2	-25.8
							CHANNELS 3  Xrotation Yrotation Zrotation
							JOINT head_ee
							{
								OFFSET	0	179.8	-8.7
								CHANNELS 3  Xrotation Yrotation Zrotation
								End Site
								{
									OFFSET	1	0	0
								}
							}
						}
					}
					JOINT left_clavicle
					{
						OFFSET	-43.2	22.4	-70.8
						CHANNELS 3  Xrotation Yrotation Zrotation
						JOINT left_shoulder
						{
							OFFSET	-93.9	-5.79999	48.7
							CHANNELS 3  Xrotation Yrotation Zrotation
							JOINT left_elbow
							{
								OFFSET	-291.4	-30.8	15.2
								CHANNELS 3  Xrotation Yrotation Zrotation
								JOINT left_lowarm_twist
								{
									OFFSET	-110.7	-3.89999	13.6
									CHANNELS 3  Xrotation Yrotation Zrotation
									JOINT left_hand
									{
										OFFSET	-110.7	-3.89999	13.6
										CHANNELS 3  Xrotation Yrotation Zrotation
										JOINT left_ee
										{
											OFFSET	-80.8	-5.10001	12.1
											CHANNELS 3  Xrotation Yrotation Zrotation
											End Site
											{
												OFFSET	1	0	0
											}
										}
									}
								}
							}
						}
					}
					JOINT right_clavicle
					{
						OFFSET	43.2	22.4	-70.8
						CHANNELS 3  Xrotation Yrotation Zrotation
						JOINT right_shoulder
						{
							OFFSET	93.9	-5.79999	48.7
							CHANNELS 3  Xrotation Yrotation Zrotation
							JOINT right_elbow
							{
								OFFSET	291.4	-30.8	15.2
								CHANNELS 3  Xrotation Yrotation Zrotation
								JOINT right_lowarm_twist
								{
									OFFSET	110.7	-3.89999	13.6
									CHANNELS 3  Xrotation Yrotation Zrotation
									JOINT right_hand
									{
										OFFSET	110.7	-3.89999	13.6
										CHANNELS 3  Xrotation Yrotation Zrotation
										JOINT right_ee
										{
											OFFSET	80.8	-5.10001	12.1
											CHANNELS 3  Xrotation Yrotation Zrotation
											End Site
											{
												OFFSET	1	0	0
											}
										}
									}
								}
							}
						}
					}
				}
			}
		}
	}
	JOINT left_hip
	{
		OFFSET	-82.8	-127.5	0.300001
		CHANNELS 3  Xrotation Yrotation Zrotation
		JOINT left_knee
		{
			OFFSET	-28.2	-396.7	2.2
			CHANNELS 3  Xrotation Yrotation Zrotation
			JOINT left_ankle
			{
				OFFSET	-11.7	-411.3	35.4
				CHANNELS 3  Xrotation Yrotation Zrotation
				JOINT left_toes
				{
					OFFSET	0	-60	-88.6
					CHANNELS 3  Xrotation Yrotation Zrotation
					JOINT left_foot_ee
					{
						OFFSET	-22.5	-16.5	-42.2
						CHANNELS 3  Xrotation Yrotation Zrotation
						End Site
						{
							OFFSET	1	0	0
						}
					}
				}
			}
		}
	}
	JOINT right_hip
	{
		OFFSET	82.8	-127.5	0.300001
		CHANNELS 3  Xrotation Yrotation Zrotation
		JOINT right_knee
		{
			OFFSET	28.2	-396.7	2.2
			CHANNELS 3  Xrotation Yrotation Zrotation
			JOINT right_ankle
			{
				OFFSET	11.7	-411.3	35.4
				CHANNELS 3  Xrotation Yrotation Zrotation
				JOINT right_toes
				{
					OFFSET	0	-60	-88.6
					CHANNELS 3  Xrotation Yrotation Zrotation
					JOINT right_foot_ee
					{
						OFFSET	22.5	-16.5	-42.2
						CHANNELS 3  Xrotation Yrotation Zrotation
						End Site
						{
							OFFSET	1	0	0
						}
					}
				}
			}
		}
	}
}
MOTION
Frames: 15
Frame Time: 0.02
3009.51172814 688.445 -1872.88934027 7.10933649437 17.3265492045 -5.77477468833 -3.50313 0.564243 2.16592 -3.50062 0.425312 2.19741 -3.48005 -0.181759 2.23078 -3.48695 0.172742 2.2315 6.89524 -1.65658 -2.24468 6.90674 -0.790351 -2.68104 -0.0 0.0 -0.0 6.1061 -7.98495 11.5965 3.87203 -4.18607 57.9849 1.28278 -32.4324 0.373089 8.07012 0.21365 -1.00788 0.25568 -20.2346 -6.90098 -0.0 0.0 -0.0 11.2122 22.7487 -21.9152 -35.2489 49.7762 -47.8778 0.467903 13.0501 -0.0535184 -72.8765 6.91349 -5.31879 2.6925 27.491 -5.63734 0.0 0.0 0.0 2.78561 -18.4101 10.1493 0.0606577 -0.00250266 -0.00897203 20.4284 27.9066 -2.97743 -20.799 0.0 0.0 -0.0 0.0 -0.0 22.424 24.2395 -5.74296 -65.7192 2.84816 -9.12403 -10.388 -18.8235 -1.57402 37.1866 -0.0 -0.0 0.0 0.0 0.0 
2985.61701158 679.252 -1873.15793403 5.25589502324 21.9785143103 -6.11090126349 -3.00188 0.585302 2.15753 -2.9994 0.446861 2.19038 -2.97842 -0.139558 2.23112 -2.98531 0.214467 2.22517 6.1437 -1.36771 -1.50561 6.14899 -0.988798 -1.79911 -0.0 0.0 -0.0 5.70492 -9.18504 10.704 5.0966 -5.16163 57.1712 1.48933 -36.4165 0.48993 9.19917 0.232147 -1.15092 0.415436 -19.5034 -5.52442 -0.0 0.0 -0.0 11.0087 19.9586 -21.6771 -36.9993 50.5004 -47.7692 0.409334 11.4628 -0.0410837 -73.343 6.97312 -5.31972 2.55628 28.5939 -4.21044 0.0 0.0 0.0 1.28679 -16.975 10.633 1.37652 -0.0591261 -0.202949 25.0105 24.0437 -3.49073 -21.6363 0.0 0.0 -0.0 0.0 -0.0 27.9062 28.1676 -10.0119 -65.6527 2.84028 -9.11745 -9.02428 -21.9323 -1.38036 38.0504 -0.0 -0.0 0.0 0.0 0.0 
2958.17498955 677.015 -1878.88307956 5.54403641665 26.2358954965 -6.67193653764 -3.02673 0.637597 1.98567 -3.02468 0.509978 2.02219 -3.00323 -0.0356272 2.08518 -3.00917 0.294064 2.06466 4.49267 -0.579132 -0.678915 4.49378 -0.406956 -0.802937 -0.0 0.0 -0.0 5.03128 -9.22472 9.29854 5.24113 -5.88439 57.1223 1.68471 -39.8436 0.61062 10.1059 0.244959 -1.26603 0.667044 -18.7233 -3.51251 -0.0 0.0 -0.0 10.4855 15.8658 -20.7375 -40.5503 52.0074 -46.41 0.402901 11.2873 -0.0398147 -74.055 7.06413 -5.3202 2.36741 28.5614 -3.0282 0.0 0.0 0.0 0.422648 -16.1066 12.6065 0.574627 -0.0240883 -0.0848897 26.9757 20.388 -3.6635 -22.2127 0.0 0.0 -0.0 0.0 -0.0 35.4501 32.1263 -16.2739 -67.1629 3.02103 -9.26477 -8.56074 -26.041 -1.3346 38.3675 -0.0 -0.0 0.0 0.0 0.0 
2936.00294716 680.587 -1884.25335209 5.50616600327 29.4340930118 -6.72632158341 -2.79042 0.53882 1.76973 -2.78878 0.425134 1.80042 -2.77283 -0.0522274 1.84918 -2.77753 0.240421 1.83423 5.44717 -0.201967 -0.768623 5.44916 0.330493 -0.89252 -0.0 0.0 -0.0 4.82314 -9.2066 8.86711 5.90154 -7.1169 56.5298 1.82022 -42.0364 0.69943 10.6202 0.251415 -1.3314 0.816637 -18.6907 -2.5029 -0.0 0.0 -0.0 10.1215 12.8843 -20.0397 -42.5333 53.1888 -46.2822 0.359691 10.1032 -0.0317953 -74.4705 7.11722 -5.31995 2.16588 28.6469 -1.70846 0.0 0.0 0.0 -0.693985 -16.2584 12.8905 -0.319631 0.0130295 0.0473201 28.8378 18.8293 -3.85438 -22.7455 0.0 0.0 -0.0 0.0 -0.0 40.062 34.7296 -18.8939 -65.9091 2.8707 -9.14279 -6.38263 -25.9286 -0.991214 38.6875 -0.0 -0.0 0.0 0.0 0.0 
2892.80309881 676.343 -1912.79007059 6.01690873709 33.2955969025 -7.59480009783 -2.5924 0.280627 1.7138 -2.59078 0.171021 1.72818 -2.5836 -0.273658 1.71492 -2.58771 0.000574616 1.73661 7.46569 0.918341 -0.292904 7.47115 1.80381 -0.320433 -0.0 0.0 -0.0 4.48543 -8.97444 8.18133 7.41479 -10.3669 55.4068 2.24595 -48.0438 1.00109 12.4267 0.269436 -1.56143 1.16806 -18.0075 0.136079 -0.0 0.0 -0.0 9.12457 3.84063 -17.9523 -47.4514 58.3348 -45.5373 0.247059 6.97766 -0.0150625 -75.914 7.3016 -5.31607 1.40743 28.7081 3.12764 0.0 0.0 0.0 -3.08363 -16.4999 11.8348 -3.1007 0.11519 0.461859 35.2967 14.1285 -4.47702 -24.4687 0.0 0.0 -0.0 0.0 -0.0 44.3185 39.456 -21.3287 -63.5251 2.59241 -8.90199 0.607735 -26.4891 0.0934294 39.45 -0.0 -0.0 0.0 0.0 0.0 
2889.78812176 676.343 -1909.22619865 6.06698273972 34.0062746155 -7.6851631359 -2.5924 0.280627 1.7138 -2.59078 0.171021 1.72818 -2.5836 -0.273658 1.71492 -2.58771 0.000574616 1.73661 7.46569 0.918341 -0.292904 7.47115 1.80381 -0.320433 -0.0 0.0 -0.0 4.48543 -8.97444 8.18133 7.41479 -10.3669 55.4068 2.24595 -48.0438 1.00109 12.4267 0.269436 -1.56143 1.16806 -18.0075 0.136079 -0.0 0.0 -0.0 9.12457 3.84063 -17.9523 -47.4514 58.3348 -45.5373 0.247059 6.97766 -0.0150625 -75.914 7.3016 -5.31607 1.40743 28.7081 3.12764 0.0 0.0 0.0 -3.08363 -16.4999 11.8348 -3.1007 0.11519 0.461859 35.2967 14.1285 -4.47702 -24.4687 0.0 0.0 -0.0 0.0 -0.0 44.3185 39.456 -21.3287 -63.5251 2.59241 -8.90199 0.607735 -26.4891 0.0934294 39.45 -0.0 -0.0 0.0 0.0 0.0 
2873.89966435 679.006 -1915.50594306 5.57844287108 34.4267922966 -7.56809170465 -2.43573 0.181348 1.64384 -2.43423 0.0763931 1.65204 -2.43035 -0.341539 1.61817 -2.434 -0.0817305 1.65179 7.84627 0.721123 -1.26132 7.8624 2.34178 -1.4777 -0.0 0.0 -0.0 4.43968 -8.5803 8.11205 8.09205 -11.0964 55.1037 2.4004 -49.9293 1.11765 12.8969 0.272937 -1.62139 1.22163 -19.4123 -0.132191 -0.0 0.0 -0.0 8.6462 3.27913 -16.9493 -47.0777 58.7917 -46.2697 0.219209 6.19761 -0.0118674 -76.0835 7.32323 -5.31531 0.778423 28.7609 7.15254 0.0 0.0 0.0 -3.90239 -16.4189 11.7252 -3.56673 0.130333 0.531777 35.9219 12.7353 -4.52319 -24.4741 0.0 0.0 -0.0 0.0 -0.0 41.1963 42.3526 -19.2598 -55.5627 1.74037 -8.01875 1.39172 -27.0457 0.21427 39.9978 -0.0 -0.0 0.0 0.0 0.0 
2856.09627154 673.368 -1935.48742882 4.72581804619 34.2773242915 -6.35503155878 -2.22095 0.0406906 1.54251 -2.21963 -0.0575336 1.54197 -2.21994 -0.438079 1.47956 -2.22294 -0.198941 1.53017 7.68937 0.640341 -1.94718 7.71818 2.82326 -2.28739 -0.0 0.0 -0.0 4.53928 -8.0505 8.35086 9.05827 -11.7465 54.6646 2.507 -51.15 1.19996 13.3091 0.2756 -1.67397 1.29418 -21.2699 -0.484181 -0.0 0.0 -0.0 7.83266 2.51326 -15.2715 -47.2943 59.4963 -46.9024 0.245652 6.93832 -0.014892 -76.4605 7.37135 -5.31338 -0.0959614 28.3179 12.5917 0.0 0.0 0.0 -4.47153 -15.7545 12.2574 -4.92523 0.171222 0.736251 36.3474 11.2493 -4.55081 -24.4529 0.0 0.0 -0.0 0.0 -0.0 36.981 45.9444 -16.3743 -41.7738 0.583456 -6.24479 1.17209 -27.8806 0.181459 40.1823 -0.0 -0.0 0.0 0.0 0.0 
2833.66429947 674.386 -1949.15856185 3.90729225491 34.7737986859 -6.02428178371 -2.28504 0.0324244 1.48166 -2.28382 -0.0619129 1.48072 -2.28427 -0.428723 1.41867 -2.28702 -0.199316 1.46856 7.46817 0.521072 -2.92404 7.52159 3.49815 -3.4363 -0.0 0.0 -0.0 4.58784 -6.75283 8.52795 9.58591 -12.2627 54.1736 2.60852 -52.2554 1.27963 13.8987 0.278753 -1.74921 1.40188 -23.935 -0.983808 -0.0 0.0 -0.0 6.61749 1.3881 -12.8226 -47.7451 60.4519 -47.7247 0.29046 8.18801 -0.0207899 -77.027 7.44361 -5.30989 -1.28914 27.0452 19.9937 0.0 0.0 0.0 -4.5375 -14.7188 13.1586 -6.69666 0.217232 1.0042 36.9858 9.60863 -4.59987 -24.4301 0.0 0.0 -0.0 0.0 -0.0 28.52 50.4129 -10.2103 -23.0019 -0.247924 -3.49746 -0.0100556 -29.1437 -0.0015734 40.0118 -0.0 -0.0 0.0 0.0 0.0 
2828.16416651 669.347 -1953.43197919 3.7739514817 34.5538777359 -6.30792845245 -2.29433 -0.000709953 1.20394 -2.29353 -0.0773128 1.20146 -2.29442 -0.374271 1.1443 -2.2962 -0.188867 1.18904 6.78605 0.377688 -4.31243 6.8869 4.48158 -5.0349 -0.0 0.0 -0.0 4.82297 -7.29312 8.97916 10.924 -13.2292 53.3055 2.61159 -52.2881 1.28206 15.9457 0.283685 -2.01061 1.07603 -25.0185 -3.58858 -0.0 0.0 -0.0 6.03756 2.22442 -11.6482 -46.6107 60.0201 -48.3334 0.285384 8.04681 -0.0200732 -76.3553 7.35793 -5.31395 -2.02334 26.9343 24.9958 0.0 0.0 0.0 -5.07045 -13.3085 12.8771 -6.4389 0.211053 0.965125 36.3605 9.87766 -4.54232 -25.2972 0.0 0.0 -0.0 0.0 -0.0 27.3398 52.1011 -6.56566 -17.6684 -0.316106 -2.68222 3.90571 -28.7205 0.603994 40.2761 -0.0 -0.0 0.0 0.0 0.0 
2813.72308649 671.91 -1957.19295871 3.28095381975 34.4879516072 -6.05151853234 -2.27308 0.041788 0.951247 -2.27257 -0.0188243 0.951979 -2.2724 -0.255084 0.917363 -2.27356 -0.107009 0.946133 6.06402 0.879965 -4.07325 6.16651 5.09777 -4.68931 -0.0 0.0 -0.0 5.64148 -7.74504 10.6435 11.8891 -14.2599 53.1666 2.52592 -51.3603 1.21472 17.2094 0.282067 -2.172 0.563791 -25.7793 -7.24582 -0.0 0.0 -0.0 5.85391 2.93931 -11.2612 -43.5228 60.0657 -51.0967 0.290209 8.18102 -0.0207542 -75.9362 7.30443 -5.31598 -2.68284 26.9597 29.6911 0.0 0.0 0.0 -6.44327 -11.5482 12.7817 -6.26573 0.206803 0.938891 35.6464 10.5666 -4.47816 -25.8964 0.0 0.0 -0.0 0.0 -0.0 26.3433 53.1058 -4.51002 -10.608 -0.289349 -1.59995 6.49337 -28.4797 0.995878 40.1297 -0.0 -0.0 0.0 0.0 0.0 
2799.95222492 665.512 -1973.61201267 3.52355309547 33.4395824876 -5.74633388372 -2.35876 0.214339 0.737996 -2.35847 0.166945 0.750139 -2.35588 -0.0260351 0.768049 -2.35669 0.0955871 0.762523 4.60805 1.46604 -3.58643 4.70083 5.64202 -4.00477 -0.0 0.0 -0.0 6.68754 -7.8597 12.8128 13.0119 -15.7108 52.8876 2.40236 -49.9524 1.11915 18.2167 0.278228 -2.3006 -0.0662185 -26.8155 -11.7849 -0.0 0.0 -0.0 5.45992 3.97639 -10.4333 -42.4932 59.3504 -52.903 0.312088 8.78849 -0.0239824 -75.6041 7.26203 -5.3173 -3.53268 26.9451 36.0216 0.0 0.0 0.0 -8.06133 -8.82127 12.5672 -5.97211 0.199416 0.894436 34.6832 11.942 -4.39418 -26.7203 0.0 0.0 -0.0 0.0 -0.0 24.1369 53.6715 -2.32797 -4.94418 -0.171758 -0.73911 9.57239 -28.0367 1.45107 38.2767 -0.0 -0.0 0.0 0.0 0.0 
2750.2691485 646.493 -2025.02751678 4.94262986811 38.5133218356 -6.00848305287 -1.99785 -0.211236 0.069707 -1.99787 -0.215244 0.0561241 -1.99812 -0.222433 0.00187678 -1.99805 -0.219345 0.0369825 1.8793 3.55353 -1.39457 1.94243 7.41788 -1.2396 -0.0 0.0 -0.0 7.45823 -8.32913 14.4138 12.6078 -23.298 53.9581 2.10497 -46.193 0.897778 26.1026 0.17028 -3.30133 -0.892562 -28.3738 -17.8388 -0.0 0.0 -0.0 5.00651 8.6661 -9.27974 -38.1493 54.4041 -63.3158 0.385871 10.8217 -0.0365495 -73.0623 6.93724 -5.31922 -4.84055 26.6222 46.6757 0.0 0.0 0.0 -15.1976 -7.85512 11.6623 -2.98582 0.111369 0.444642 20.9609 19.3059 -2.91546 -24.4841 0.0 0.0 -0.0 0.0 -0.0 26.4856 55.5726 -5.00043 -5.14248 -0.177311 -0.769037 14.3204 -28.374 2.14241 38.4612 -0.0 -0.0 0.0 0.0 0.0 
2754.71236819 646.493 -2030.29101692 4.89476873178 37.8055685785 -5.93102078199 -1.99785 -0.211236 0.069707 -1.99787 -0.215244 0.0561241 -1.99812 -0.222433 0.00187678 -1.99805 -0.219345 0.0369825 1.8793 3.55353 -1.39457 1.94243 7.41788 -1.2396 -0.0 0.0 -0.0 7.45823 -8.32913 14.4138 12.6078 -23.298 53.9581 2.10497 -46.193 0.897778 26.1026 0.17028 -3.30133 -0.892562 -28.3738 -17.8388 -0.0 0.0 -0.0 5.00651 8.6661 -9.27974 -38.1493 54.4041 -63.3158 0.385871 10.8217 -0.0365495 -73.0623 6.93724 -5.31922 -4.84055 26.6222 46.6757 0.0 0.0 0.0 -15.1976 -7.85512 11.6623 -2.98582 0.111369 0.444642 20.9609 19.3059 -2.91546 -24.4841 0.0 0.0 -0.0 0.0 -0.0 26.4856 55.5726 -5.00043 -5.14248 -0.177311 -0.769037 14.3204 -28.374 2.14241 38.4612 -0.0 -0.0 0.0 0.0 0.0 
2757.15609602 646.493 -2033.13031145 4.86943636526 37.4206380321 -5.88951475286 -1.99785 -0.211236 0.069707 -1.99787 -0.215244 0.0561241 -1.99812 -0.222433 0.00187678 -1.99805 -0.219345 0.0369825 1.8793 3.55353 -1.39457 1.94243 7.41788 -1.2396 -0.0 0.0 -0.0 7.45823 -8.32913 14.4138 12.6078 -23.298 53.9581 2.10497 -46.193 0.897778 26.1026 0.17028 -3.30133 -0.892562 -28.3738 -17.8388 -0.0 0.0 -0.0 5.00651 8.6661 -9.27974 -38.1493 54.4041 -63.3158 0.385871 10.8217 -0.0365495 -73.0623 6.93724 -5.31922 -4.84055 26.6222 46.6757 0.0 0.0 0.0 -15.1976 -7.85512 11.6623 -2.98582 0.111369 0.444642 20.9609 19.3059 -2.91546 -24.4841 0.0 0.0 -0.0 0.0 -0.0 26.4856 55.5726 -5.00043 -5.14248 -0.177311 -0.769037 14.3204 -28.374 2.14241 38.4612 -0.0 -0.0 0.0 0.0 0.0 
